<svg width="48" height="48" viewBox="0 0 48 48" fill="none" xmlns="http://www.w3.org/2000/svg">
<path fill-rule="evenodd" clip-rule="evenodd" d="M40.3596 14.798C40.3596 14.798 40.4978 15.5 40.5449 15.5067C43.0902 15.8697 45 17.3544 45 20C45 22.8995 42.6495 25.25 39.75 25.25H26.25C23.3505 25.25 21 22.8995 21 20C21 17.3544 22.9569 15.1658 25.5022 14.8028C25.5494 14.7961 25.5956 14.7947 25.6404 14.798C26.3167 11.3508 29.3546 8.75 33 8.75C36.6454 8.75 39.6833 11.3508 40.3596 14.798Z" fill="#F3F3F3"/>
<path d="M26.6471 25.25C23.5283 25.25 21 22.7876 21 19.75C21 17.0968 22.9289 14.8824 25.4953 14.3645C26.3776 11.1319 29.4032 8.75 33 8.75C37.0661 8.75 40.4023 11.794 40.7371 15.67C43.1451 15.9919 45 18.0037 45 20.4375C45 23.0954 42.7878 25.25 40.0588 25.25H26.6471Z" stroke="#231815" stroke-width="2" stroke-linecap="round" stroke-linejoin="round"/>
<path fill-rule="evenodd" clip-rule="evenodd" d="M33.8127 21.0641C33.8127 21.0641 33.997 22 34.0599 22.009C37.4537 22.4929 40 24.4725 40 28C40 31.866 36.866 35 33 35H15C11.134 35 8 31.866 8 28C8 24.4725 10.6092 21.5544 14.003 21.0705C14.0659 21.0615 14.1275 21.0596 14.1873 21.0641C15.0889 16.4677 19.1395 13 24 13C28.8605 13 32.9111 16.4677 33.8127 21.0641Z" fill="#F3F3F3"/>
<path d="M15.5294 35C11.371 35 8 31.7168 8 27.6667C8 24.1291 10.5718 21.1766 13.9938 20.486C15.1702 16.1758 19.2043 13 24 13C29.4215 13 33.8697 17.0587 34.3161 22.2266C37.5268 22.6559 40 25.3383 40 28.5833C40 32.1272 37.0503 35 33.4118 35H15.5294Z" stroke="#231815" stroke-width="2" stroke-linecap="round" stroke-linejoin="round"/>
</svg>
